<mxfile host="app.diagrams.net" modified="2022-11-23T09:46:31.955Z" agent="5.0 (X11; Linux x86_64) AppleWebKit/537.36 (KHTML, like Gecko) Chrome/103.0.0.0 Safari/537.36" etag="VvxruVRUVl4cQpFNk_Jr" version="20.6.0" type="github">
  <diagram id="tjBWReivG_z0wJyzRTSH" name="페이지-1">
    <mxGraphModel dx="1422" dy="771" grid="1" gridSize="10" guides="1" tooltips="1" connect="1" arrows="1" fold="1" page="1" pageScale="1" pageWidth="827" pageHeight="1169" math="0" shadow="0">
      <root>
        <mxCell id="0" />
        <mxCell id="1" parent="0" />
        <mxCell id="Ccqw_1icPOyDvENShi0_-2" value="dmclientservice" style="rounded=0;whiteSpace=wrap;html=1;" parent="1" vertex="1">
          <mxGeometry x="82" y="50" width="110" height="20" as="geometry" />
        </mxCell>
        <mxCell id="Ccqw_1icPOyDvENShi0_-4" value="update hmi" style="rounded=0;whiteSpace=wrap;html=1;" parent="1" vertex="1">
          <mxGeometry x="649" y="50" width="110" height="20" as="geometry" />
        </mxCell>
        <mxCell id="Ccqw_1icPOyDvENShi0_-6" value="" style="endArrow=none;html=1;rounded=0;entryX=0.5;entryY=1;entryDx=0;entryDy=0;" parent="1" target="Ccqw_1icPOyDvENShi0_-2" edge="1">
          <mxGeometry width="50" height="50" relative="1" as="geometry">
            <mxPoint x="137" y="760" as="sourcePoint" />
            <mxPoint x="200" y="230" as="targetPoint" />
          </mxGeometry>
        </mxCell>
        <mxCell id="Ccqw_1icPOyDvENShi0_-7" value="" style="endArrow=none;html=1;rounded=0;entryX=0.5;entryY=1;entryDx=0;entryDy=0;" parent="1" edge="1">
          <mxGeometry width="50" height="50" relative="1" as="geometry">
            <mxPoint x="703" y="770" as="sourcePoint" />
            <mxPoint x="703.5" y="70" as="targetPoint" />
          </mxGeometry>
        </mxCell>
        <mxCell id="Ccqw_1icPOyDvENShi0_-9" value="" style="endArrow=classic;html=1;rounded=0;" parent="1" edge="1">
          <mxGeometry width="50" height="50" relative="1" as="geometry">
            <mxPoint x="136" y="140" as="sourcePoint" />
            <mxPoint x="697" y="140" as="targetPoint" />
          </mxGeometry>
        </mxCell>
        <mxCell id="Ccqw_1icPOyDvENShi0_-10" value="1.&amp;nbsp;" style="text;html=1;resizable=0;autosize=1;align=center;verticalAlign=middle;points=[];fillColor=none;strokeColor=none;rounded=0;" parent="1" vertex="1">
          <mxGeometry x="155" y="110" width="40" height="30" as="geometry" />
        </mxCell>
      </root>
    </mxGraphModel>
  </diagram>
</mxfile>
